PathFileType	4	(X/Y/Z)	Patient4_TMGait_0pt3_03_right_11.trc.trc
DataRate	CameraRate	NumFrames	NumMarkers	Units	OrigDataRate	OrigDataStartFrame	OrigNumFrames
51.851851851852	51.851851851852	4	33	mm	51.851851851852	89	       141
Frame#	Time	Sacral			L.Shoulder			Chest			R.Shoulder			Neck			R.ASIS			L.ASIS			R.Thigh.Superior			R.Thigh.Lateral			R.Thigh.Inferior			R.Patella			L.Thigh.Superior			L.Thigh.Lateral			L.Thigh.Inferior			L.Patella			L.Shank.Superior			L.Shank.Lateral			L.Shank.Inferior			R.Shank.Superior			R.Shank.Lateral			R.Shank.Inferior			R.Heel			R.Midfoot.Superior			R.Midfoot.Lateral			R.Toe			L.Heel			L.Midfoot.Lateral			L.Midfoot.Superior			L.Toe			L.Elbow			L.Wrist			R.Elbow			R.Wrist			
		X1	Y1	Z1	X2	Y2	Z2	X3	Y3	Z3	X4	Y4	Z4	X5	Y5	Z5	X6	Y6	Z6	X7	Y7	Z7	X8	Y8	Z8	X9	Y9	Z9	X10	Y10	Z10	X11	Y11	Z11	X12	Y12	Z12	X13	Y13	Z13	X14	Y14	Z14	X15	Y15	Z15	X16	Y16	Z16	X17	Y17	Z17	X18	Y18	Z18	X19	Y19	Z19	X20	Y20	Z20	X21	Y21	Z21	X22	Y22	Z22	X23	Y23	Z23	X24	Y24	Z24	X25	Y25	Z25	X26	Y26	Z26	X27	Y27	Z27	X28	Y28	Z28	X29	Y29	Z29	X30	Y30	Z30	X31	Y31	Z31	X32	Y32	Z32	X33	Y33	Z33	

89	22.507142857143	798.668689658647	1015.742318876677	479.985967608471	977.216274961658	1419.741699073014	257.474914095901	1097.066316156360	1351.655161047939	407.134464900281	1044.276317516434	1441.698268973065	584.328808343931	982.156324205287	1490.422069094785	414.041062406373	1031.292097634383	935.280745530928	578.264443223775	996.320207797533	952.571739057635	306.697253860198	1025.428929256567	722.748808848718	557.684475323337	926.333898177774	630.973188800687	628.632690804445	984.019309353296	561.231448553873	548.800082341636	963.489334765769	468.676024252751	563.004067054971	1062.108700947209	759.208379228544	345.946643352314	992.072725637995	632.428327498010	283.009288022998	1087.809486119533	567.129751451364	345.971428761673	1097.829827726469	494.921087630870	351.502447701219	1069.590178476779	421.279465185459	343.610927842266	980.927280530195	306.477641413146	293.085662162217	1034.166160502928	194.382712390212	359.857056301533	904.640023262139	394.971871809221	576.044997279262	804.915480514115	323.174940476965	644.844431915940	814.010198565236	215.649533910798	589.317811296507	634.864471489008	86.369730145771	569.732829650577	812.629544304455	101.429514967395	601.681698592441	715.629909530512	59.976548407971	642.435539670275	919.094324453834	36.343808813944	631.280170102386	906.766237408407	39.337227139165	400.607653003391	979.777542418106	36.656410483652	319.253719464826	1064.019316733300	96.801566506390	345.687012006409	1191.289533911823	43.461250451158	314.287360903208	912.310981694870	1071.443685320272	152.216597714861	980.129168969068	817.581603133346	146.681913767680	1152.493934814737	1115.547252406096	702.602985217621	1401.085574565680	1115.392281271629	654.378732873244	
90	22.526428571429	798.042531158171	1015.609521006335	474.188842350883	977.270335498695	1420.669719978514	253.731447542388	1095.956084172864	1352.513682068448	404.299964398865	1041.391991338479	1442.035741907800	581.181811311946	980.506774047057	1491.000715313293	410.529615192374	1030.042245106411	935.888382699627	574.221150149620	997.145191573414	952.703467331090	302.439800950835	1024.998788389735	723.370131909712	554.961211672154	925.747762316102	631.660876994045	625.865470666614	984.647934939130	561.490991178443	547.018665694965	964.262162273339	468.181205833153	562.275834630972	1062.218535875440	758.684846192463	342.317868972042	991.667593169992	631.830325685616	280.016797035614	1086.937164885523	566.323824096490	343.412747145996	1096.566611115107	493.916471889404	349.298467051711	1067.492883484187	420.245064256188	341.885266179429	977.764917343070	306.056989119093	291.697443416711	1029.646808673652	193.847109114023	359.241841758576	904.222171267401	395.309176909993	575.236348393044	802.945883218627	325.459566303140	643.731796605706	811.488547530554	217.116360097281	589.273527014936	630.577804775473	90.209188995045	569.742479352723	808.808370372771	101.986826367398	602.344073065883	710.740880687245	62.057356018075	642.480069261685	913.388244494814	36.219144493879	631.343386139617	900.962157846366	39.390088680786	400.585564243845	973.967483839532	36.638713934342	319.236031314212	1058.270719017261	96.701845621444	345.636645048643	1185.527590148208	43.159395820696	314.270755192088	922.271431557339	1071.727142594122	144.403579879861	998.738501748625	820.452608865674	137.060952448535	1146.835036773231	1114.213765100174	699.392092880459	1396.608106218442	1098.827593736617	656.781937918175	
91	22.545714285714	797.199400340638	1015.395011311591	468.322911870279	977.434748777311	1421.456559873207	250.013591490597	1094.776152221137	1353.221384219552	401.604242112243	1038.305404121327	1442.264560060272	578.085648601398	978.813565551147	1491.466425525283	406.983178106279	1028.505258169808	936.412521511663	570.313002850372	997.916597909858	952.705988434025	298.332430161008	1024.974747340635	724.028527955727	552.351015859262	925.889191275000	632.106623172695	623.146506428189	986.295167229179	561.684377926368	545.271358869355	966.244913290218	467.425844197469	561.655436020473	1062.233637708629	758.072146425317	338.708735781696	991.164397989800	631.205905007450	277.001514540987	1085.957232854935	565.478289623557	340.816599120775	1095.158321513642	492.888803882462	347.062932480555	1065.291253232957	419.182605653582	340.120506410645	974.518661474659	305.593414369247	290.214789412721	1025.049592533371	193.290389096777	358.588834230459	904.849736113483	395.475872646961	574.448055876543	801.860007184814	327.901582263556	642.577078452437	809.591646744326	218.748230596480	589.211548648635	626.704087434131	94.819871179601	569.606303853943	805.296481923422	102.770124421965	603.064836524885	706.025681453755	64.698853460925	642.429613083275	907.607283671263	36.036954197656	631.446590605821	895.133376196619	39.428854221878	400.542616049525	968.134569418151	36.599196009287	319.189387395509	1052.491424606845	96.593627040631	345.562257833819	1179.743946825899	42.889051172987	314.256764269659	932.479664323584	1072.128184708536	136.864588489705	1017.313950093576	823.701788120614	128.188405979543	1140.379619334096	1112.721056522486	696.552354982653	1390.121341683715	1081.036460252903	659.497234942993	
92	22.565000000000	796.125602281931	1015.081799823939	462.415748251766	977.735126848821	1422.061900470454	246.315596305761	1093.529534742580	1353.753742188218	399.056668506216	1035.006524333762	1442.381272382585	575.029913443139	977.092233507839	1491.797034523810	403.386723284899	1026.676299390066	936.841434532740	566.577522296108	998.624122671356	952.584571444211	294.407328936976	1025.491042170819	724.770241562980	549.856436024925	926.984428506252	632.302690845272	620.496990960013	989.206709499219	561.848924833301	543.571077859035	969.698989505075	466.444148478734	561.139660117617	1062.142373774785	757.356339182888	335.141198716071	990.560538849431	630.549430419607	273.986983479936	1084.869520013318	564.588927512722	338.226072150463	1093.621843999995	491.834729074128	344.832737653085	1062.998974409423	418.091565015327	338.344205121897	971.210204105482	305.089372855193	288.670708106582	1020.384649170269	192.711757572885	357.915389559828	906.767480008800	395.492225328715	573.663761744141	801.900678240567	330.571754680034	641.357296013309	808.473193505015	220.651369251724	589.092660534658	623.393072279850	100.501406641365	569.256497435796	802.163075115347	103.910574058690	603.784850878213	701.564632255071	68.147029776276	642.224651067009	901.753173949802	35.768795446621	631.585149100227	889.292039503157	39.454083434835	400.479722425824	962.290766110109	36.542638469000	319.116769703141	1046.691833365109	96.480068068720	345.469846770129	1173.950516023391	42.650710385922	314.244574417070	942.855212338872	1072.615888690679	129.656048694052	1035.754682995376	827.249380690032	120.110917913263	1133.032230622979	1111.080424715273	694.096976265903	1381.368420805220	1062.236490599835	662.473991535910	
